<?xml version="1.0" encoding="utf-8"?>
<!-- Generator: Adobe Illustrator 16.0.0, SVG Export Plug-In . SVG Version: 6.00 Build 0)  -->
<!DOCTYPE svg PUBLIC "-//W3C//DTD SVG 1.1//EN" "http://www.w3.org/Graphics/SVG/1.1/DTD/svg11.dtd">
<svg version="1.1" id="Capa_1" xmlns="http://www.w3.org/2000/svg" xmlns:xlink="http://www.w3.org/1999/xlink" x="0px" y="0px"
	 width="577.848px" height="117.645px" viewBox="0 0 577.848 117.645" enable-background="new 0 0 577.848 117.645"
	 xml:space="preserve">
<g>
	<g>
		<g>
			<path fill="#FFFFFF" d="M122.821,14.077c-0.555-1.375-1.557-2.498-2.744-3.465c-1.904-1.568-4.096-2.726-6.412-3.697
				c-6.03-2.512-12.42-3.913-18.969-4.724c-3.943-0.482-7.926-0.783-11.9-1.021C77.272,0.86,71.749,0.996,66.243,1.422
				c-4.402,0.34-8.779,0.894-13.098,1.745c-4.951,0.989-9.799,2.268-14.318,4.402c-2.291,1.083-4.428,2.361-6.127,4.141
				c-2.637,2.757-2.697,6.007-0.018,8.733c1.051,1.061,2.283,2.011,3.576,2.808c3.381,2.109,7.199,3.385,11.104,4.45
				c4.066,1.118,8.23,1.873,12.436,2.428c1.609,0.207,3.229,0.361,4.889,0.542c2.672-8.309,5.322-16.559,7.975-24.803
				c0.029,0.014,0.068,0.023,0.105,0.03c0.434,8.396,0.859,16.784,1.301,25.229c0.578,0.029,1.084,0.084,1.586,0.067
				c3.264-0.076,6.523-0.126,9.773-0.277c5.008-0.225,9.975-0.844,14.879-1.774c4.842-0.929,9.582-2.152,14.047-4.136
				c2.637-1.184,5.141-2.553,7.031-4.662C123.057,18.486,123.77,16.424,122.821,14.077z"/>
			<path fill="#FFFFFF" d="M62.932,31.791c-5.77,0.14-11.494,0.644-17.156,1.684c-5.471,1.016-10.793,2.426-15.795,4.74
				c-3.172,1.473-6.121,3.229-8.342,5.813c-2.016,2.357-2.906,4.967-1.91,7.912c0.828,2.452,2.619,4.29,4.766,5.871
				c3.627,2.656,7.807,4.359,12.178,5.725c4.525,1.41,9.189,2.316,13.914,2.965c0.74,0.095,1.477,0.171,2.217,0.243
				c3.752-11.678,7.48-23.291,11.238-34.954C63.616,31.791,63.276,31.785,62.932,31.791z"/>
			<path fill="#FFFFFF" d="M104.688,40.059c-4.096-2.479-8.637-4.048-13.336-5.277c-4.502-1.169-9.098-1.919-13.754-2.419
				c-1.123-0.123-2.246-0.192-3.441-0.289c0.605,11.666,1.195,23.242,1.791,34.863c0.355,0,0.637,0.035,0.914-0.014
				c2.854-0.384,5.723-0.711,8.551-1.195c5.145-0.896,10.143-2.248,14.873-4.311c3.414-1.492,6.586-3.283,9.051-5.971
				c2.992-3.257,3.344-7.046,0.926-10.505C108.854,42.904,106.872,41.375,104.688,40.059z"/>
		</g>
		<g>
			<path fill="#FFFFFF" d="M187.584,37.692c3.729-1.056,5.617-3.505,5.617-7.302v-5.278c0-5.862-3.422-8.835-10.174-8.835h-37.498
				v44.152h34.816c8.754,0,13.191-3,13.191-8.918V45.98C193.538,41.632,191.538,38.853,187.584,37.692z M156.329,41.656h22.508
				c1.975,0,2.881,0.284,3.279,0.516c0.75,0.471,1.127,1.439,1.127,2.887v3.269c0,1.446-0.377,2.416-1.115,2.877
				c-0.596,0.346-1.703,0.523-3.291,0.523h-22.508V41.656z M182.993,30.977c0,0.657,0,2.649-4.156,2.649h-22.508v-9.403h22.508
				c4.156,0,4.156,1.994,4.156,2.648V30.977z"/>
			<path fill="#FFFFFF" d="M234.495,16.276h-10.246l-24.984,44.152h11.104l5.031-9.47h26.863l5.197,9.47h12.363l-25.197-43.922
				L234.495,16.276z M237.588,42.258h-17.424l8.865-16.189L237.588,42.258z"/>
			<path fill="#FFFFFF" d="M308.47,39.444c0,0.86,0.113,2.947,0.332,6.201c-1.061-1.102-2.44-2.37-4.11-3.783l-30.424-25.478
				l-0.127-0.108h-7.488v44.152h9.957V36.592c0-1.493-0.098-3.358-0.293-5.557c0.836,0.88,1.752,1.735,2.734,2.552l31.761,26.733
				l0.129,0.107h7.488V16.276h-9.959V39.444z"/>
			<path fill="#FFFFFF" d="M374.117,16.276h-31.854c-4.291,0-7.158,0.729-8.77,2.218c-1.621,1.5-2.406,4.267-2.406,8.461v22.799
				c0,4.191,0.785,6.96,2.406,8.46c1.607,1.489,4.477,2.214,8.77,2.214h31.854c4.291,0,7.16-0.726,8.768-2.214
				c1.621-1.5,2.408-4.27,2.408-8.46V26.955c0-4.194-0.787-6.961-2.406-8.461C381.277,17.004,378.408,16.276,374.117,16.276z
				 M374.332,24.896v26.496h-32.283V24.896H374.332z"/>
			<path fill="#FFFFFF" d="M435.761,44.086c6.762,0,10.186-2.975,10.186-8.834V25.112c0-5.862-3.424-8.835-10.186-8.835h-37.506
				v44.152h10.795V44.086h8.922l17.312,16.219l0.131,0.124h15.873l-19.967-16.342L435.761,44.086L435.761,44.086z M409.05,24.559
				h22.176c1.844,0,2.682,0.246,3.037,0.441c0.705,0.424,1.047,1.262,1.047,2.563v5.233c0,1.305-0.342,2.143-1.029,2.556
				c-0.373,0.205-1.207,0.45-3.055,0.45H409.05V24.559L409.05,24.559z"/>
			<polygon fill="#FFFFFF" points="454.291,24.896 474.154,24.896 474.154,60.428 485.115,60.428 485.115,24.896 505.06,24.896 
				505.06,16.276 454.291,16.276 			"/>
			<polygon fill="#FFFFFF" points="524.699,51.392 524.699,41.572 545.207,41.572 545.207,33.291 524.699,33.291 524.699,24.559 
				558.113,24.559 558.113,16.276 513.738,16.276 513.738,60.428 558.529,60.428 558.529,51.392 			"/>
		</g>
	</g>
	<g>
		<path fill="#FFFFFF" d="M13.14,93.058H5.667v-2.321h17.49v2.321h-7.473v19.938H13.14V93.058z"/>
		<path fill="#FFFFFF" d="M33.233,90.577h2.353l10.144,22.419h-2.703l-2.607-5.883H28.304l-2.639,5.883h-2.576L33.233,90.577z
			 M39.434,104.856l-5.056-11.353l-5.088,11.353H39.434z"/>
		<path fill="#FFFFFF" d="M50.113,90.737h9.477c2.544,0,4.547,0.731,5.819,1.972c0.922,0.954,1.431,2.131,1.431,3.562v0.063
			c0,2.895-1.781,4.389-3.53,5.152c2.64,0.795,4.77,2.32,4.77,5.373v0.064c0,3.815-3.212,6.073-8.077,6.073h-9.89V90.737z
			 M59.176,100.658c3.021,0,5.12-1.368,5.12-3.976V96.62c0-2.195-1.749-3.626-4.929-3.626h-6.773v7.664H59.176z M60.067,110.739
			c3.371,0,5.469-1.495,5.469-3.975V106.7c0-2.417-2.035-3.816-5.915-3.816h-7.028v7.854H60.067z"/>
		<path fill="#FFFFFF" d="M73.067,90.737h2.512v19.938h12.529v2.321H73.067V90.737z"/>
		<path fill="#FFFFFF" d="M92.747,90.737h16.091v2.29H95.259v7.6h12.147v2.289H95.259v7.791h13.737v2.29h-16.25V90.737z"/>
		<path fill="#FFFFFF" d="M114.048,90.737h9.572c2.735,0,4.929,0.827,6.328,2.226c1.081,1.082,1.717,2.641,1.717,4.389v0.064
			c0,3.688-2.544,5.851-6.042,6.486l6.837,9.095h-3.084l-6.456-8.649h-6.36v8.649h-2.512V90.737z M123.397,102.089
			c3.339,0,5.724-1.717,5.724-4.579v-0.063c0-2.734-2.099-4.389-5.692-4.389h-6.869v9.031H123.397z"/>
		<path fill="#FFFFFF" d="M136.048,101.93v-0.063c0-6.137,4.611-11.512,11.384-11.512c6.773,0,11.321,5.311,11.321,11.448v0.063
			c0,6.137-4.611,11.512-11.384,11.512S136.048,108.068,136.048,101.93z M156.145,101.93v-0.063c0-5.057-3.688-9.189-8.776-9.189
			s-8.713,4.07-8.713,9.126v0.063c0,5.057,3.688,9.189,8.776,9.189S156.145,106.986,156.145,101.93z"/>
		<path fill="#FFFFFF" d="M173.817,90.737h2.512v22.26h-2.512V90.737z"/>
		<path fill="#FFFFFF" d="M182.846,90.737h2.354l14.023,17.84v-17.84h2.448v22.26h-2.003l-14.374-18.253v18.253h-2.449V90.737z"/>
		<path fill="#FFFFFF" d="M207.962,90.737h15.995v2.321h-13.483v7.95h12.052v2.29h-12.052v9.698h-2.512V90.737z"/>
		<path fill="#FFFFFF" d="M227.356,101.93v-0.063c0-6.137,4.611-11.512,11.384-11.512c6.773,0,11.321,5.311,11.321,11.448v0.063
			c0,6.137-4.611,11.512-11.384,11.512S227.356,108.068,227.356,101.93z M247.453,101.93v-0.063c0-5.057-3.688-9.189-8.776-9.189
			s-8.713,4.07-8.713,9.126v0.063c0,5.057,3.688,9.189,8.776,9.189S247.453,106.986,247.453,101.93z"/>
		<path fill="#FFFFFF" d="M255.365,90.737h9.572c2.735,0,4.929,0.827,6.328,2.226c1.081,1.082,1.717,2.641,1.717,4.389v0.064
			c0,3.688-2.544,5.851-6.042,6.486l6.837,9.095h-3.084l-6.456-8.649h-6.36v8.649h-2.512V90.737z M264.714,102.089
			c3.339,0,5.724-1.717,5.724-4.579v-0.063c0-2.734-2.099-4.389-5.692-4.389h-6.869v9.031H264.714z"/>
		<path fill="#FFFFFF" d="M278.351,90.737h2.544l8.109,12.147l8.109-12.147h2.544v22.26h-2.513v-18.03l-8.109,11.925h-0.127
			l-8.109-11.894v17.999h-2.449V90.737z"/>
		<path fill="#FFFFFF" d="M314.183,90.577h2.354l10.144,22.419h-2.702l-2.607-5.883h-12.116l-2.64,5.883h-2.575L314.183,90.577z
			 M320.384,104.856l-5.056-11.353l-5.088,11.353H320.384z"/>
		<path fill="#FFFFFF" d="M334.085,93.058h-7.473v-2.321h17.489v2.321h-7.473v19.938h-2.544V93.058z"/>
		<path fill="#FFFFFF" d="M349.027,90.737h2.512v22.26h-2.512V90.737z"/>
		<path fill="#FFFFFF" d="M356.147,90.737h2.798l7.918,19.175l7.95-19.175h2.703l-9.571,22.419h-2.227L356.147,90.737z"/>
		<path fill="#FFFFFF" d="M379.611,101.93v-0.063c0-6.137,4.611-11.512,11.385-11.512c6.772,0,11.32,5.311,11.32,11.448v0.063
			c0,6.137-4.611,11.512-11.385,11.512C384.159,113.378,379.611,108.068,379.611,101.93z M399.708,101.93v-0.063
			c0-5.057-3.689-9.189-8.777-9.189s-8.713,4.07-8.713,9.126v0.063c0,5.057,3.689,9.189,8.777,9.189S399.708,106.986,399.708,101.93
			z"/>
		<path fill="#FFFFFF" d="M416.171,101.93v-0.063c0-6.296,4.707-11.512,11.257-11.512c4.039,0,6.456,1.432,8.682,3.53l-1.717,1.845
			c-1.877-1.781-3.976-3.053-6.996-3.053c-4.929,0-8.618,4.006-8.618,9.126v0.063c0,5.151,3.721,9.189,8.618,9.189
			c3.053,0,5.056-1.176,7.187-3.211l1.653,1.621c-2.321,2.354-4.865,3.912-8.903,3.912
			C420.91,113.378,416.171,108.322,416.171,101.93z"/>
		<path fill="#FFFFFF" d="M448.856,90.577h2.354l10.144,22.419h-2.702l-2.608-5.883h-12.115l-2.639,5.883h-2.576L448.856,90.577z
			 M455.057,104.856l-5.056-11.353l-5.088,11.353H455.057z"/>
		<path fill="#FFFFFF" d="M465.737,90.737h2.353l14.023,17.84v-17.84h2.449v22.26h-2.004l-14.373-18.253v18.253h-2.448V90.737z"/>
		<path fill="#FFFFFF" d="M499.088,90.577h2.354l10.144,22.419h-2.702l-2.608-5.883H494.16l-2.639,5.883h-2.576L499.088,90.577z
			 M505.29,104.856l-5.056-11.353l-5.088,11.353H505.29z"/>
		<path fill="#FFFFFF" d="M515.969,90.737h2.512v19.938h12.529v2.321h-15.041V90.737z"/>
		<path fill="#FFFFFF" d="M535.648,90.737h16.09v2.29H538.16v7.6h12.147v2.289H538.16v7.791h13.737v2.29h-16.249V90.737z"/>
		<path fill="#FFFFFF" d="M555.487,109.753l1.558-1.845c2.321,2.099,4.548,3.147,7.632,3.147c2.989,0,4.961-1.59,4.961-3.783v-0.064
			c0-2.066-1.113-3.243-5.787-4.229c-5.12-1.113-7.473-2.767-7.473-6.424v-0.063c0-3.498,3.084-6.073,7.313-6.073
			c3.243,0,5.564,0.922,7.822,2.734l-1.463,1.939c-2.066-1.686-4.134-2.416-6.423-2.416c-2.894,0-4.738,1.59-4.738,3.593v0.063
			c0,2.1,1.145,3.275,6.042,4.325c4.961,1.081,7.25,2.894,7.25,6.296v0.063c0,3.816-3.18,6.296-7.6,6.296
			C561.051,113.314,558.158,112.138,555.487,109.753z"/>
	</g>
</g>
</svg>
