<?xml version="1.0" encoding="utf-8"?>
<!-- Generator: Adobe Illustrator 16.0.0, SVG Export Plug-In . SVG Version: 6.00 Build 0)  -->
<!DOCTYPE svg PUBLIC "-//W3C//DTD SVG 1.1//EN" "http://www.w3.org/Graphics/SVG/1.1/DTD/svg11.dtd">
<svg version="1.1" id="Capa_1" xmlns="http://www.w3.org/2000/svg" xmlns:xlink="http://www.w3.org/1999/xlink" x="0px" y="0px"
	 width="90px" height="91px" viewBox="0 0 90 91" enable-background="new 0 0 90 91" xml:space="preserve">
<g>
	<rect fill="#FF6705" width="90" height="91"/>
	<g>
		<path fill="#FFFFFF" d="M17.987,31.813c0-0.523,0.237-1.015,0.703-1.463c1.242-1.196,2.628,0.051,3.024,0.461
			c0.123,0.13,23.727,24.638,23.727,24.638s23.511-24.415,23.725-24.64c0.811-0.843,2.039-1.412,3.029-0.459
			c0.461,0.448,0.697,0.941,0.697,1.464c0,0.632-0.33,1.291-1.009,2.015c-0.371,0.398-16.995,17.649-26.442,27.451
			c-4.523-4.69-26.009-26.971-26.447-27.437C18.319,33.12,17.987,32.456,17.987,31.813z"/>
	</g>
</g>
</svg>
