<?xml version="1.0" encoding="utf-8"?>
<!-- Generator: Adobe Illustrator 16.0.0, SVG Export Plug-In . SVG Version: 6.00 Build 0)  -->
<!DOCTYPE svg PUBLIC "-//W3C//DTD SVG 1.1//EN" "http://www.w3.org/Graphics/SVG/1.1/DTD/svg11.dtd">
<svg version="1.1" id="Capa_1" xmlns="http://www.w3.org/2000/svg" xmlns:xlink="http://www.w3.org/1999/xlink" x="0px" y="0px"
	 width="208.039px" height="176px" viewBox="0 0 208.039 176" enable-background="new 0 0 208.039 176" xml:space="preserve">
<g>
	<path fill="#CCCCCC" d="M192.87,141.949c0,0,12.065,12.646,14.25,16.861c0.988,1.905,0.956,6.048,0.893,9.042
		c-0.072,3.361-2.26,7.588-8.587,7.588c-19.821,0-81.235,0.56-91.771,0.56h-7.002c-10.535,0-72.417-0.56-92.239-0.56
		c-6.688,0-8.291-4.513-8.399-8.122c-0.079-2.625,0.146-5.067,0.556-6.803c1.091-4.62,14.867-18.541,14.867-18.541L192.87,141.949z"
		/>
	<path fill="#E6E6E6" d="M192.87,133.053c0,0,9.521,16.387,11.707,20.602c2.185,4.215,7.803,12.837-3.746,12.837
		c-19.822,0-82.641,0.509-93.176,0.509h-7.002c-10.535,0-73.354-0.509-93.176-0.509c-11.549,0-5.931-8.524-3.746-12.739
		c2.185-4.214,11.706-20.65,11.706-20.65L192.87,133.053z"/>
	<rect x="21.272" y="31" fill="#F2AC4A" width="167" height="119"/>
	<path fill="#E6942C" d="M77.272,113.066c0,2.893-2.359,4.934-4.946,4.934H34.401c-2.587,0-4.128-2.042-4.128-4.934V92.639
		c0-2.894,1.542-3.639,4.128-3.639h37.925c2.587,0,4.946,0.746,4.946,3.639V113.066z"/>
	<path fill="#D8831E" d="M36.719,117c-2.652,0-4.447-3.349-4.447-6.363V94.321c0-2.913,1.748-5.321,4.447-5.321h33.288
		c2.606,0,5.266,2.211,5.266,5.321v16.315c0,3.17-2.742,6.363-5.266,6.363H36.719z"/>
	<rect x="86.272" y="88" fill="#633300" width="36" height="63"/>
	<rect x="91.272" y="91" fill="#3E1E00" width="27" height="30"/>
	<rect x="91.272" y="92" fill="#E5F7FF" width="26" height="28"/>
	<g>
		<rect x="91.272" y="128" fill="#3E1E00" width="9" height="18"/>
		<rect x="91.272" y="129" fill="#4A2700" width="9" height="16"/>
		<rect x="107.272" y="128" fill="#3E1E00" width="9" height="18"/>
		<rect x="108.272" y="129" fill="#4A2700" width="8" height="16"/>
	</g>
	<circle fill="#F6931A" cx="117.978" cy="124" r="2.029"/>
	<path fill="#E5F7FF" d="M74.272,110.637c0,2.728-1.863,6.363-4.266,6.363H36.719c-2.401,0-4.447-3.635-4.447-6.363V94.321
		c0-2.727,2.046-4.321,4.447-4.321h33.288c2.402,0,4.266,1.595,4.266,4.321V110.637z"/>
	<path fill="#E6942C" d="M179.272,113.066c0,2.893-1.819,4.934-4.404,4.934H136.94c-2.586,0-4.668-2.042-4.668-4.934V92.639
		c0-2.894,2.082-3.639,4.668-3.639h37.928c2.585,0,4.404,0.746,4.404,3.639V113.066z"/>
	<path fill="#D8831E" d="M16.272,120.878v23.88c0,0,0.301,9.242,15.734,9.242c15.434,0,43.998,0,43.998,0s7.268-1.594,7.268-9.32
		s0-22.163,0-22.163l-57.318,2.653L16.272,120.878z"/>
	<path fill="#D8831E" d="M192.272,120.878v23.88c0,0,0.539,9.242-14.881,9.242s-43.961,0-43.961,0s-7.158-1.594-7.158-9.32
		s0-22.163,0-22.163l56.797,2.653L192.272,120.878z"/>
	<circle fill="#FFB02A" cx="117.978" cy="123.532" r="2.029"/>
	<g>
		<defs>
			<rect id="SVGID_105_" x="21.272" y="31" width="167" height="119"/>
		</defs>
		<clipPath id="SVGID_1_">
			<use xlink:href="#SVGID_105_"  overflow="visible"/>
		</clipPath>
		<g opacity="0.12" clip-path="url(#SVGID_1_)">
			<path d="M10.356,61l-1.083-0.104c0,0,0,12.927,0,17.375c0,4.448,2.771,6.399,7.486,6.32c6.546-0.108,7.514-3.746,7.514-3.746
				v-19.95L23.932,61H10.356z"/>
			<path d="M23.932,61l0.341-0.104v19.95c0,0-0.581,3.746,6.69,3.746c7.272,0,7.31-3.746,7.31-3.746v-19.95L38.902,61H23.932z"/>
			<path d="M38.9,61l-0.628-0.104v19.95c0,0,1.054,3.746,7.421,3.746c6.367,0,7.579-3.746,7.579-3.746v-19.95L53.874,61H38.9z"/>
			<path d="M53.874,61l-0.602-0.104v19.95c0,0,0.295,3.746,6.114,3.746c5.818,0,6.886-3.746,6.886-3.746v-19.95L67.447,61H53.874z"
				/>
			<path d="M67.448,61l-1.176-0.104v19.95c0,0,1.621,3.746,8.082,3.746c6.459,0,7.918-3.746,7.918-3.746v-19.95L82.416,61H67.448z"
				/>
			<path d="M82.416,61l-0.144-0.104v19.95c0,0,0.926,3.746,7.193,3.746c6.27,0,6.807-3.746,6.807-3.746v-19.95L96.923,61H82.416z"/>
			<path d="M96.272,60.896v19.95c0,0,1.115,3.712,7.728,3.712c5.999,0,7.272-3.712,7.272-3.712v-19.95L111.882,61H96.923
				L96.272,60.896z"/>
			<path d="M111.272,60.896v19.95c0,0,0.537,3.746,6.806,3.746s7.194-3.746,7.194-3.746v-19.95L126.388,61h-14.507L111.272,60.896z"
				/>
			<path d="M125.272,60.896v19.95c0,0,1.957,3.746,8.419,3.746c6.46,0,8.581-3.746,8.581-3.746v-19.95L141.356,61h-14.969
				L125.272,60.896z"/>
			<path d="M142.272,60.896v19.95c0,0,1.067,3.746,6.886,3.746s6.114-3.746,6.114-3.746v-19.95L154.931,61h-13.573L142.272,60.896z"
				/>
			<path d="M155.272,60.896v19.95c0,0,0.711,3.746,7.078,3.746c6.366,0,6.922-3.746,6.922-3.746v-19.95L169.903,61h-14.973
				L155.272,60.896z"/>
			<path d="M169.272,60.896v19.95c0,0,0.037,3.746,7.309,3.746s6.691-3.746,6.691-3.746v-19.95L184.873,61h-14.97L169.272,60.896z"
				/>
			<path d="M183.272,60.896v19.95c0,0,1.704,3.637,8.251,3.746c4.716,0.079,7.749-1.873,7.749-6.32c0-4.448,0-17.375,0-17.375
				L198.913,61h-14.039L183.272,60.896z"/>
		</g>
	</g>
	<g>
		<path fill="#DC0031" d="M9.272,76.398c0,4.448,2.771,6.399,7.486,6.321c6.546-0.108,7.514-3.746,7.514-3.746V59.022l9.555-27.779
			l-13.62,0.022L9.272,59.022C9.272,59.022,9.272,71.95,9.272,76.398z"/>
		<path fill="#FF0025" d="M24.272,78.973c0,0-0.581,3.746,6.69,3.746c7.272,0,7.31-3.746,7.31-3.746V59.022L46.356,33H33.335
			l-9.062,26.022V78.973z"/>
		<path fill="#DC0031" d="M38.272,78.973c0,0,1.054,3.746,7.421,3.746c6.367,0,7.579-3.746,7.579-3.746V59.022L59.723,33H46.181
			l-7.908,26.022V78.973z"/>
		<path fill="#FF0025" d="M53.272,78.973c0,0,0.295,3.746,6.114,3.746c5.818,0,6.886-3.746,6.886-3.746V59.022L72.554,33H59.671
			l-6.398,26.022V78.973z"/>
		<path fill="#DC0031" d="M66.272,78.973c0,0,1.621,3.746,8.082,3.746c6.459,0,7.918-3.746,7.918-3.746V59.022L85.415,33H72.653
			l-6.381,26.022V78.973z"/>
		<path fill="#FF0025" d="M82.272,78.973c0,0,0.926,3.746,7.193,3.746c6.27,0,6.807-3.746,6.807-3.746V59.022L98.713,33h-13.36
			l-3.08,26.022V78.973z"/>
		<path fill="#DC0031" d="M111.272,78.973c0,0-1.273,3.712-7.272,3.712c-6.612,0-7.728-3.712-7.728-3.712V59.022L98.713,33h11.327
			l1.232,26.022V78.973z"/>
		<path fill="#FF0025" d="M125.272,78.973c0,0-0.926,3.746-7.194,3.746s-6.806-3.746-6.806-3.746V59.022L109.841,33h13.361
			l2.07,26.022V78.973z"/>
		<path fill="#DC0031" d="M142.272,78.973c0,0-2.121,3.746-8.581,3.746c-6.462,0-8.419-3.746-8.419-3.746V59.022L123.139,33H135.9
			l6.372,26.022V78.973z"/>
		<path fill="#FF0025" d="M155.272,78.973c0,0-0.296,3.746-6.114,3.746s-6.886-3.746-6.886-3.746V59.022L136,33h12.884l6.389,26.022
			V78.973z"/>
		<path fill="#DC0031" d="M169.272,78.973c0,0-0.556,3.746-6.922,3.746c-6.367,0-7.078-3.746-7.078-3.746V59.022L148.831,33h13.541
			l6.9,26.022V78.973z"/>
		<path fill="#FF0025" d="M183.272,78.973c0,0,0.58,3.746-6.691,3.746s-7.309-3.746-7.309-3.746V59.022L162.198,33h13.02
			l8.055,26.022V78.973z"/>
		<path fill="#DC0031" d="M199.272,76.398c0,4.448-3.033,6.399-7.749,6.321c-6.547-0.108-8.251-3.746-8.251-3.746V59.022
			l-8.578-27.779l13.632,0.022l10.946,27.757C199.272,59.022,199.272,71.95,199.272,76.398z"/>
		<g>
			<path fill="#C60235" d="M10.356,60l-1.083-0.978c0,0,0,12.928,0,17.376c0,4.448,2.771,6.399,7.486,6.321
				c6.546-0.108,7.514-3.746,7.514-3.746V59.022L23.932,60H10.356z"/>
			<path fill="#FB002C" d="M23.932,60l0.341-0.978v19.951c0,0-0.581,3.746,6.69,3.746c7.272,0,7.31-3.746,7.31-3.746V59.022
				L38.902,60H23.932z"/>
			<path fill="#C60235" d="M38.9,60l-0.628-0.978v19.951c0,0,1.054,3.746,7.421,3.746c6.367,0,7.579-3.746,7.579-3.746V59.022
				L53.874,60H38.9z"/>
			<path fill="#FB002C" d="M53.874,60l-0.602-0.978v19.951c0,0,0.295,3.746,6.114,3.746c5.818,0,6.886-3.746,6.886-3.746V59.022
				L67.447,60H53.874z"/>
			<path fill="#C60235" d="M67.448,60l-1.176-0.978v19.951c0,0,1.621,3.746,8.082,3.746c6.459,0,7.918-3.746,7.918-3.746V59.022
				L82.416,60H67.448z"/>
			<path fill="#FB002C" d="M82.416,60l-0.144-0.978v19.951c0,0,0.926,3.746,7.193,3.746c6.27,0,6.807-3.746,6.807-3.746V59.022
				L96.923,60H82.416z"/>
			<path fill="#C60235" d="M96.272,59.022v19.951c0,0,1.115,3.712,7.728,3.712c5.999,0,7.272-3.712,7.272-3.712V59.022L111.882,60
				H96.923L96.272,59.022z"/>
			<path fill="#FB002C" d="M111.272,59.022v19.951c0,0,0.537,3.746,6.806,3.746s7.194-3.746,7.194-3.746V59.022L126.388,60h-14.507
				L111.272,59.022z"/>
			<path fill="#C60235" d="M125.272,59.022v19.951c0,0,1.957,3.746,8.419,3.746c6.46,0,8.581-3.746,8.581-3.746V59.022L141.356,60
				h-14.969L125.272,59.022z"/>
			<path fill="#FB002C" d="M142.272,59.022v19.951c0,0,1.067,3.746,6.886,3.746s6.114-3.746,6.114-3.746V59.022L154.931,60h-13.573
				L142.272,59.022z"/>
			<path fill="#C60235" d="M155.272,59.022v19.951c0,0,0.711,3.746,7.078,3.746c6.366,0,6.922-3.746,6.922-3.746V59.022L169.903,60
				h-14.973L155.272,59.022z"/>
			<path fill="#FB002C" d="M169.272,59.022v19.951c0,0,0.037,3.746,7.309,3.746s6.691-3.746,6.691-3.746V59.022L184.873,60h-14.97
				L169.272,59.022z"/>
			<path fill="#C60235" d="M183.272,59.022v19.951c0,0,1.704,3.637,8.251,3.746c4.716,0.078,7.749-1.873,7.749-6.321
				c0-4.448,0-17.376,0-17.376L198.913,60h-14.039L183.272,59.022z"/>
		</g>
	</g>
	<path fill="#D8831E" d="M139.261,117c-2.653,0-5.988-3.349-5.988-6.363V94.321c0-2.913,3.289-5.321,5.988-5.321h33.287
		c2.606,0,4.725,2.211,4.725,5.321v16.315c0,3.17-2.201,6.363-4.725,6.363H139.261z"/>
	<path fill="#E5F7FF" d="M176.272,110.637c0,2.728-1.322,6.363-3.725,6.363h-33.287c-2.402,0-4.988-3.635-4.988-6.363V94.321
		c0-2.727,2.586-4.321,4.988-4.321h33.287c2.402,0,3.725,1.595,3.725,4.321V110.637z"/>
	<rect x="17.272" y="25" fill="#B3B3B3" width="174" height="8"/>
	<rect x="13.272" y="6" fill="#CCCCCC" width="182" height="19"/>
	<rect x="42.272" fill="#FF0025" width="124" height="29"/>
	<g>
		<g>
			<path fill-rule="evenodd" clip-rule="evenodd" fill="#FFFFFF" d="M71.972,10.318c-0.105-0.264-0.299-0.479-0.525-0.664
				c-0.364-0.3-0.783-0.521-1.227-0.708c-1.153-0.479-2.376-0.748-3.629-0.902c-0.755-0.093-1.517-0.151-2.277-0.196
				c-1.057-0.06-2.111-0.034-3.166,0.048c-0.842,0.065-1.679,0.17-2.505,0.333c-0.947,0.189-1.874,0.434-2.739,0.843
				c-0.438,0.208-0.848,0.451-1.172,0.792c-0.505,0.527-0.516,1.149-0.004,1.67c0.201,0.204,0.438,0.385,0.684,0.537
				c0.647,0.403,1.378,0.647,2.125,0.852c0.777,0.213,1.574,0.358,2.379,0.465c0.309,0.039,0.617,0.068,0.936,0.103
				c0.51-1.59,1.018-3.167,1.524-4.746c0.007,0.004,0.014,0.006,0.021,0.007c0.084,1.605,0.164,3.21,0.25,4.825
				c0.11,0.006,0.207,0.017,0.303,0.014c0.623-0.015,1.248-0.024,1.871-0.053c0.955-0.044,1.906-0.162,2.845-0.34
				c0.927-0.178,1.833-0.412,2.688-0.791c0.505-0.226,0.983-0.489,1.345-0.892C72.017,11.161,72.153,10.767,71.972,10.318"/>
			<path fill-rule="evenodd" clip-rule="evenodd" fill="#FFFFFF" d="M60.515,13.706c-1.104,0.026-2.198,0.123-3.282,0.322
				c-1.046,0.195-2.064,0.464-3.021,0.907c-0.607,0.281-1.172,0.618-1.596,1.113c-0.387,0.449-0.559,0.949-0.367,1.513
				c0.158,0.468,0.502,0.82,0.912,1.124c0.693,0.507,1.494,0.832,2.33,1.095c0.865,0.269,1.758,0.442,2.662,0.566
				c0.141,0.018,0.282,0.032,0.424,0.046c0.717-2.234,1.431-4.456,2.149-6.688C60.646,13.706,60.58,13.706,60.515,13.706"/>
			<path fill-rule="evenodd" clip-rule="evenodd" fill="#FFFFFF" d="M68.503,15.29c-0.784-0.476-1.652-0.776-2.552-1.011
				c-0.861-0.224-1.739-0.367-2.631-0.462c-0.216-0.024-0.43-0.038-0.658-0.055c0.114,2.231,0.229,4.445,0.343,6.668
				c0.068,0,0.121,0.007,0.176-0.002c0.545-0.073,1.094-0.136,1.635-0.228c0.984-0.172,1.939-0.431,2.846-0.825
				c0.652-0.286,1.26-0.627,1.73-1.142c0.573-0.624,0.64-1.347,0.178-2.009C69.3,15.832,68.921,15.54,68.503,15.29"/>
		</g>
		<g>
			<path fill="#FFFFFF" d="M85.666,13.998c0.714-0.202,1.075-0.67,1.075-1.396v-1.01c0-1.122-0.654-1.689-1.947-1.689H77.62v8.445
				h6.661c1.674,0,2.523-0.573,2.523-1.706v-1.059C86.805,14.752,86.422,14.22,85.666,13.998 M79.687,14.755h4.306
				c0.378,0,0.552,0.055,0.628,0.101c0.145,0.089,0.215,0.275,0.215,0.551v0.625c0,0.277-0.07,0.462-0.213,0.55
				c-0.113,0.066-0.326,0.1-0.63,0.1h-4.306V14.755z M84.788,12.714c0,0.125,0,0.506-0.796,0.506h-4.306v-1.799h4.306
				c0.796,0,0.796,0.382,0.796,0.507V12.714z"/>
			<path fill="#FFFFFF" d="M94.64,9.902h-1.96L87.9,18.347h2.124l0.962-1.812h5.139l0.995,1.812h2.365l-4.819-8.402L94.64,9.902z
				 M95.231,14.872h-3.332l1.695-3.098L95.231,14.872z"/>
			<path fill="#FFFFFF" d="M108.792,14.333c0,0.165,0.021,0.564,0.064,1.187c-0.204-0.21-0.469-0.453-0.788-0.724l-5.819-4.873
				l-0.023-0.02h-1.434v8.445h1.904v-4.56c0-0.286-0.019-0.643-0.055-1.062c0.159,0.168,0.335,0.333,0.522,0.489l6.075,5.113
				l0.024,0.02h1.434V9.902h-1.905V14.333z"/>
			<path fill="#FFFFFF" d="M121.349,9.902h-6.092c-0.82,0-1.369,0.137-1.678,0.423c-0.311,0.287-0.461,0.816-0.461,1.619v4.361
				c0,0.803,0.15,1.331,0.461,1.619c0.309,0.284,0.856,0.423,1.678,0.423h6.092c0.822,0,1.371-0.139,1.68-0.423
				c0.309-0.288,0.459-0.816,0.459-1.619v-4.361c0-0.803-0.15-1.332-0.459-1.619C122.72,10.04,122.17,9.902,121.349,9.902
				 M121.392,16.619h-6.176v-5.07h6.176V16.619z"/>
			<path fill="#FFFFFF" d="M133.144,15.221c1.293,0,1.947-0.568,1.947-1.69v-1.94c0-1.122-0.654-1.689-1.947-1.689h-7.176v8.445
				h2.065v-3.126h1.707l3.312,3.102l0.025,0.024h3.036l-3.82-3.126H133.144z M128.033,11.486h4.243c0.352,0,0.512,0.046,0.58,0.084
				c0.135,0.081,0.2,0.241,0.2,0.491v1.001c0,0.25-0.065,0.41-0.198,0.489c-0.07,0.04-0.23,0.086-0.582,0.086h-4.243V11.486z"/>
			<polygon fill="#FFFFFF" points="136.687,11.549 140.487,11.549 140.487,18.347 142.584,18.347 142.584,11.549 146.4,11.549 
				146.4,9.902 136.687,9.902 			"/>
			<polygon fill="#FFFFFF" points="150.157,16.619 150.157,14.74 154.079,14.74 154.079,13.156 150.157,13.156 150.157,11.486 
				156.549,11.486 156.549,9.902 148.06,9.902 148.06,18.347 156.628,18.347 156.628,16.619 			"/>
			
				<line fill="#FFFFFF" stroke="#28A8DF" stroke-width="0.995" stroke-miterlimit="10" x1="77.694" y1="18.312" x2="77.47" y2="18.312"/>
		</g>
	</g>
	<path fill="#E6942C" d="M21.272,113.973v5.969c0,0-0.197,2.418,10.64,2.575c10.835,0.156,37.309-0.078,41.463-0.078
		c4.158,0,7.781,0.081,7.781-3.821C83.384,120.959,84.338,129,75.58,129c-8.759,0-48.392,0-51.213,0
		c-2.82,0-6.973-2.271-7.782-6.402C15.806,118.619,18.272,114.752,21.272,113.973z"/>
	<path fill="#E6942C" d="M188.272,113.973v5.969c0,0,0.104,2.418-10.791,2.575c-10.897,0.156-37.563-0.078-41.744-0.078
		c-4.179,0-7.848,0.081-7.848-3.821c-2.237,2.34-3.219,10.381,5.586,10.381c8.807,0,48.662,0,51.498,0s7.105-2.271,7.918-6.402
		C193.676,118.619,191.272,114.752,188.272,113.973z"/>
</g>
</svg>
