<?xml version="1.0" encoding="utf-8"?>
<!-- Generator: Adobe Illustrator 16.0.0, SVG Export Plug-In . SVG Version: 6.00 Build 0)  -->
<!DOCTYPE svg PUBLIC "-//W3C//DTD SVG 1.1//EN" "http://www.w3.org/Graphics/SVG/1.1/DTD/svg11.dtd">
<svg version="1.1" id="Capa_1" xmlns="http://www.w3.org/2000/svg" xmlns:xlink="http://www.w3.org/1999/xlink" x="0px" y="0px"
	 width="31.975px" height="31.975px" viewBox="0 0 31.975 31.975" enable-background="new 0 0 31.975 31.975" xml:space="preserve">
<circle fill="#DC0031" cx="15.988" cy="15.987" r="15.987"/>
<g>
	<path fill="#FFFFFF" d="M8.208,14.969c0.513,0,0.902,0.334,1.045,0.478l6.735,6.725c1.643-1.646,6.649-6.641,6.732-6.729
		c0.143-0.14,0.531-0.474,1.043-0.474c0.301,0,0.58,0.111,0.811,0.325c0.346,0.315,0.426,0.661,0.43,0.894
		c0.012,0.377-0.152,0.731-0.494,1.086c-0.117,0.12-2.853,2.855-7.701,7.7l-0.827,0.806l-0.85-0.803
		c-4.825-4.82-7.519-7.528-7.666-7.682c-0.343-0.35-0.511-0.72-0.497-1.099c0.009-0.332,0.16-0.651,0.427-0.898
		C7.632,15.081,7.914,14.969,8.208,14.969z"/>
	<path fill="#FFFFFF" d="M15.99,22.956c-0.719,0-1.294-0.534-1.294-1.192V7.39c0-0.659,0.575-1.193,1.294-1.193l0,0
		c0.714,0,1.29,0.534,1.29,1.193v14.374C17.28,22.422,16.703,22.956,15.99,22.956L15.99,22.956z"/>
</g>
</svg>
