<?xml version="1.0" encoding="utf-8"?>
<!-- Generator: Adobe Illustrator 16.0.0, SVG Export Plug-In . SVG Version: 6.00 Build 0)  -->
<!DOCTYPE svg PUBLIC "-//W3C//DTD SVG 1.1//EN" "http://www.w3.org/Graphics/SVG/1.1/DTD/svg11.dtd">
<svg version="1.1" id="Capa_1" xmlns="http://www.w3.org/2000/svg" xmlns:xlink="http://www.w3.org/1999/xlink" x="0px" y="0px"
	 width="209.391px" height="714.242px" viewBox="0 0 209.391 714.242" enable-background="new 0 0 209.391 714.242"
	 xml:space="preserve">
<g>
	<path fill="#FFFFFF" d="M82.581,398.007v37.879c0,2.185-1.708,3.965-3.806,3.965H23.613c-2.096,0-3.803-1.78-3.803-3.965v-37.871
		c-0.834-0.762-1.53-1.67-2.073-2.69v40.562c0,3.37,2.646,6.125,5.876,6.125h55.163c3.234,0,5.877-2.755,5.877-6.125v-40.575
		C84.11,396.334,83.418,397.244,82.581,398.007"/>
	<path fill="#FFFFFF" d="M18.968,373.682v16.851c0,1.245,0.321,2.401,0.843,3.436c1.194,2.362,3.552,3.999,6.29,3.999
		c3.937,0,7.135-3.337,7.135-7.435v-16.851H18.968z"/>
	<path fill="#FFFFFF" d="M35.694,373.682v16.851c0,4.097,3.199,7.435,7.133,7.435c3.937,0,7.136-3.337,7.136-7.435v-16.851H35.694z"
		/>
	<path fill="#FFFFFF" d="M52.421,373.682v16.851c0,4.097,3.199,7.435,7.134,7.435c3.936,0,7.134-3.337,7.134-7.435v-16.851H52.421z"
		/>
	<path fill="#FFFFFF" d="M69.146,373.682v16.851c0,4.097,3.2,7.435,7.134,7.435c2.748,0,5.107-1.641,6.302-4.015
		c0.516-1.03,0.834-2.183,0.834-3.419v-16.85h-14.27V373.682z"/>
	<rect x="56.688" y="412.184" fill="#FFFFFF" width="16.727" height="29.827"/>
	<rect x="26.349" y="412.184" fill="#FFFFFF" width="23.598" height="12.42"/>
</g>
<g>
	<path fill="#FFFFFF" d="M85.486,487.068v41.229c0,2.376-1.856,4.315-4.139,4.315h-60.04c-2.281,0-4.141-1.939-4.141-4.315v-41.219
		c-0.908-0.83-1.666-1.817-2.256-2.929v44.147c0,3.667,2.879,6.665,6.396,6.665h60.041c3.519,0,6.396-2.998,6.396-6.665v-44.162
		C87.152,485.246,86.398,486.236,85.486,487.068"/>
	<rect x="57.305" y="502.498" fill="#FFFFFF" width="18.205" height="32.464"/>
	<rect x="24.283" y="502.498" fill="#FFFFFF" width="25.684" height="22.093"/>
	<path fill="#FFFFFF" d="M14.695,461.682v20h73v-20H14.695z M47.744,478.589c-0.144-0.014-0.285-0.029-0.431-0.047
		c-0.916-0.132-1.817-0.313-2.694-0.6c-0.849-0.276-1.658-0.62-2.361-1.156c-0.416-0.319-0.764-0.691-0.924-1.186
		c-0.193-0.596-0.021-1.122,0.371-1.597c0.43-0.521,1-0.878,1.614-1.175c0.972-0.468,2.002-0.752,3.062-0.958
		c1.098-0.208,2.207-0.312,3.326-0.339c0.065-0.002,0.131,0,0.215,0C49.195,473.887,48.473,476.232,47.744,478.589z M58.703,476.31
		c-0.479,0.542-1.093,0.903-1.754,1.206c-0.919,0.415-1.888,0.689-2.886,0.87c-0.547,0.097-1.104,0.164-1.655,0.241
		c-0.054,0.01-0.107,0.002-0.179,0.002c-0.114-2.345-0.229-4.684-0.346-7.04c0.229,0.021,0.449,0.035,0.666,0.06
		c0.902,0.101,1.793,0.252,2.666,0.488c0.912,0.247,1.791,0.564,2.586,1.066c0.422,0.264,0.807,0.573,1.08,0.984
		C59.35,474.886,59.283,475.651,58.703,476.31z M61.039,469.221c-0.367,0.426-0.854,0.702-1.363,0.942
		c-0.865,0.399-1.785,0.646-2.725,0.834c-0.951,0.188-1.912,0.312-2.884,0.359c-0.629,0.03-1.262,0.04-1.895,0.056
		c-0.098,0.003-0.195-0.008-0.307-0.016c-0.087-1.704-0.171-3.397-0.255-5.093c-0.006-0.003-0.014-0.004-0.02-0.008
		c-0.514,1.666-1.027,3.332-1.547,5.008c-0.32-0.036-0.635-0.065-0.947-0.108c-0.813-0.112-1.621-0.265-2.41-0.49
		c-0.756-0.216-1.496-0.473-2.149-0.899c-0.252-0.161-0.49-0.352-0.693-0.565c-0.52-0.551-0.51-1.208,0.002-1.765
		c0.33-0.358,0.744-0.616,1.188-0.836c0.877-0.431,1.815-0.688,2.774-0.889c0.838-0.172,1.687-0.284,2.539-0.352
		c1.066-0.085,2.139-0.113,3.209-0.052c0.771,0.047,1.541,0.109,2.308,0.206c1.27,0.164,2.508,0.447,3.676,0.954
		c0.449,0.196,0.875,0.432,1.244,0.746c0.229,0.196,0.424,0.422,0.53,0.701C61.5,468.43,61.363,468.845,61.039,469.221z"/>
</g>
<g>
	<path fill="#FFFFFF" d="M83.195,205.708c-3.666-8.898-9.892-15.372-18.517-19.208c-4.312-1.921-8.798-2.895-13.509-2.895
		c-4.719,0-9.19,0.974-13.502,2.895c-8.545,3.821-14.844,10.295-18.512,19.208c-1.848,4.469-2.746,9.158-2.746,14.076
		c0,4.9,0.898,9.629,2.746,14.095c3.668,8.924,9.967,15.437,18.512,19.252c4.312,1.934,8.783,2.896,13.502,2.896
		c4.711,0,9.197-0.974,13.509-2.896c8.625-3.823,14.851-10.343,18.517-19.252c1.856-4.479,2.784-9.195,2.784-14.095
		C85.979,214.866,85.052,210.199,83.195,205.708L83.195,205.708z M39.609,190.339c-3.007,3.964-5.203,8.999-6.615,15.097h-9.097
		C27.253,198.656,32.884,193.234,39.609,190.339L39.609,190.339z M20.636,219.784c0-3.457,0.536-6.78,1.565-9.985h9.966
		c-0.501,3.363-0.731,6.689-0.731,9.985c0,3.242,0.23,6.534,0.731,9.897H22.114C21.137,226.474,20.636,223.143,20.636,219.784
		L20.636,219.784z M23.897,234.045h9.097c1.412,6.218,3.608,11.33,6.615,15.251C32.768,246.326,27.137,240.897,23.897,234.045
		L23.897,234.045z M49.054,251.272c-2.485-0.748-4.798-2.65-6.893-5.739c-2.096-3.096-3.688-6.935-4.784-11.488h11.677V251.272z
		 M49.054,229.682H36.421c-0.5-3.524-0.761-6.816-0.761-9.897c0-3.336,0.261-6.663,0.833-9.985h12.561V229.682z M49.054,205.436
		H37.377c1.168-4.516,2.791-8.316,4.863-11.374c2.096-3.078,4.327-4.987,6.812-5.708L49.054,205.436L49.054,205.436z
		 M78.493,205.436H69.39c-1.398-6.098-3.609-11.133-6.611-15.097C69.514,193.234,75.145,198.656,78.493,205.436L78.493,205.436z
		 M53.344,188.354c2.465,0.721,4.711,2.63,6.812,5.708c2.089,3.058,3.689,6.858,4.856,11.374H53.344V188.354z M53.344,209.799
		h12.553c0.572,3.322,0.84,6.648,0.84,9.985c0,3.081-0.268,6.373-0.76,9.897H53.344V209.799z M53.344,251.272v-17.227h11.669
		c-1.131,4.553-2.755,8.376-4.827,11.488C58.113,248.64,55.852,250.562,53.344,251.272L53.344,251.272z M62.779,249.296
		c3.002-3.921,5.213-9.033,6.611-15.251h9.104C75.254,240.897,69.622,246.326,62.779,249.296L62.779,249.296z M80.275,229.682
		H70.224c0.515-3.363,0.731-6.655,0.731-9.897c0-3.295-0.218-6.622-0.731-9.985h9.972c1.022,3.205,1.56,6.528,1.56,9.985
		C81.754,223.143,81.254,226.474,80.275,229.682L80.275,229.682z"/>
</g>
<g>
	<g>
		<path fill="#FFFFFF" d="M55.383,554.438c-11.594,0-21.855,6.029-28.064,15.229c1.285,0.874,2.539,2.072,3.75,3.612
			c4.634-7.217,12.125-12.281,20.793-13.369l3.521,6.208l3.52-6.208c13.324,1.671,23.916,12.706,25.523,26.586l-5.961,3.667
			l5.961,3.668c-1.074,9.28-6.176,17.27-13.414,22.059c0.461,1.096,0.721,2.214,0.768,3.368c0.033,0.845-0.051,1.642-0.219,2.398
			c10.773-6.031,18.117-17.884,18.117-31.491C89.678,570.464,74.293,554.438,55.383,554.438L55.383,554.438z"/>
		<path fill="#FFFFFF" d="M64.135,613.274c-7.906-6.619-10.117-3.365-13.703,0.372c-2.506,2.609-8.844-2.841-14.313-8.543
			c-5.474-5.7-10.703-12.301-8.199-14.91c3.588-3.736,6.709-6.04,0.354-14.272c-6.354-8.236-10.588-1.914-14.062,1.706
			c-4.012,4.178-0.213,19.746,14.559,35.135s29.717,19.344,33.728,15.167C65.969,624.309,72.041,619.896,64.135,613.274
			L64.135,613.274z"/>
		<path fill="#FFFFFF" d="M63.834,589.071"/>
	</g>
	<g>
		<path fill="#FFFFFF" d="M67.104,584.18c-0.131-0.338-0.367-0.613-0.646-0.852c-0.451-0.385-0.97-0.669-1.515-0.908
			c-1.424-0.618-2.932-0.963-4.479-1.161c-0.93-0.119-1.869-0.193-2.807-0.252c-1.306-0.076-2.609-0.042-3.908,0.062
			c-1.037,0.084-2.07,0.22-3.09,0.429c-1.168,0.243-2.312,0.557-3.38,1.083c-0.54,0.266-1.045,0.581-1.444,1.018
			c-0.623,0.678-0.637,1.479-0.004,2.146c0.246,0.262,0.539,0.495,0.844,0.689c0.797,0.521,1.699,0.833,2.619,1.095
			c0.961,0.274,1.942,0.46,2.936,0.597c0.379,0.051,0.763,0.088,1.152,0.133c0.631-2.042,1.256-4.069,1.883-6.098
			c0.008,0.004,0.017,0.006,0.025,0.008c0.102,2.065,0.203,4.127,0.307,6.203c0.137,0.006,0.256,0.02,0.375,0.018
			c0.771-0.02,1.539-0.031,2.307-0.067c1.183-0.057,2.353-0.208,3.511-0.438c1.145-0.228,2.262-0.53,3.313-1.016
			c0.623-0.291,1.215-0.628,1.66-1.146C67.16,585.264,67.326,584.756,67.104,584.18z"/>
		<path fill="#FFFFFF" d="M52.971,588.535c-1.361,0.034-2.713,0.157-4.049,0.414c-1.291,0.249-2.547,0.596-3.728,1.165
			c-0.75,0.361-1.444,0.794-1.971,1.429c-0.475,0.579-0.686,1.221-0.449,1.945c0.195,0.603,0.617,1.055,1.125,1.442
			c0.854,0.653,1.843,1.072,2.873,1.407c1.066,0.347,2.168,0.569,3.283,0.73c0.176,0.021,0.35,0.041,0.523,0.058
			c0.885-2.87,1.766-5.724,2.651-8.591C53.131,588.535,53.051,588.533,52.971,588.535z"/>
		<path fill="#FFFFFF" d="M62.824,590.568c-0.968-0.611-2.037-0.997-3.146-1.301c-1.062-0.286-2.148-0.472-3.246-0.593
			c-0.266-0.031-0.529-0.048-0.812-0.073c0.143,2.869,0.282,5.716,0.422,8.572c0.084,0,0.151,0.009,0.217-0.004
			c0.674-0.094,1.35-0.175,2.018-0.294c1.214-0.22,2.394-0.553,3.511-1.058c0.805-0.369,1.555-0.809,2.135-1.469
			c0.707-0.802,0.789-1.732,0.221-2.583C63.807,591.266,63.34,590.892,62.824,590.568z"/>
	</g>
</g>
<g>
	<rect x="36.695" y="132.682" fill="#FFFFFF" width="28" height="3"/>
	<path fill="#FFFFFF" d="M77.695,125.493v-33.05c0-2.634-1.842-4.761-4.37-4.761h-2.839H31.093h-2.839
		c-2.529,0-4.56,2.127-4.56,4.761v33.05l-0.089,38.189h54.264L77.695,125.493z M62.695,160.682h-24v-14h24V160.682z M67.695,139.682
		h-33v-11h33V139.682z M72.695,119.596c0,1.373-1.334,2.086-2.651,2.086H31.464c-1.319,0-2.77-0.713-2.77-2.086V95.964
		c0-1.367,1.449-2.283,2.77-2.283h38.579c1.317,0,2.651,0.916,2.651,2.283V119.596z"/>
</g>
<g>
	<path fill="#FFFFFF" d="M101.973,13.419c-0.547-1.413-1.535-2.566-2.7-3.556c-1.878-1.608-4.036-2.798-6.319-3.793
		c-5.942-2.578-12.235-4.019-18.688-4.85c-3.887-0.489-7.811-0.805-11.727-1.045c-5.441-0.32-10.884-0.177-16.309,0.256
		c-4.334,0.352-8.646,0.92-12.902,1.792c-4.876,1.015-9.65,2.327-14.105,4.518c-2.258,1.112-4.361,2.422-6.033,4.25
		c-2.6,2.829-2.662,6.164-0.021,8.964c1.036,1.087,2.248,2.062,3.522,2.88c3.332,2.169,7.095,3.474,10.939,4.568
		c4.008,1.147,8.108,1.919,12.252,2.491c1.586,0.211,3.18,0.373,4.813,0.558c2.636-8.527,5.244-16.992,7.857-25.458
		c0.031,0.018,0.067,0.025,0.104,0.035c0.428,8.618,0.848,17.226,1.283,25.889c0.567,0.032,1.066,0.089,1.562,0.074
		c3.217-0.079,6.429-0.129,9.631-0.284c4.932-0.23,9.823-0.868,14.656-1.825c4.772-0.951,9.44-2.209,13.838-4.245
		c2.6-1.211,5.067-2.62,6.93-4.784C102.209,17.945,102.906,15.828,101.973,13.419z"/>
	<path fill="#FFFFFF" d="M42.969,31.6c-5.682,0.143-11.324,0.659-16.9,1.727c-5.39,1.041-10.633,2.49-15.561,4.866
		c-3.128,1.51-6.033,3.316-8.223,5.969C0.3,46.578-0.578,49.258,0.404,52.28c0.82,2.513,2.582,4.402,4.697,6.025
		c3.568,2.729,7.689,4.474,11.997,5.874c4.458,1.45,9.051,2.376,13.708,3.044c0.732,0.097,1.456,0.177,2.182,0.246
		c3.697-11.98,7.371-23.899,11.071-35.87C43.643,31.6,43.306,31.593,42.969,31.6z"/>
	<path fill="#FFFFFF" d="M84.108,40.087c-4.038-2.546-8.509-4.158-13.138-5.418c-4.438-1.201-8.964-1.973-13.552-2.481
		c-1.106-0.125-2.212-0.203-3.391-0.301c0.595,11.972,1.179,23.855,1.763,35.784c0.35,0,0.631,0.033,0.901-0.016
		c2.812-0.395,5.638-0.729,8.422-1.228c5.068-0.919,9.994-2.308,14.654-4.423c3.365-1.535,6.49-3.369,8.918-6.124
		c2.949-3.348,3.293-7.235,0.914-10.786C88.214,43.004,86.26,41.435,84.108,40.087z"/>
</g>
<g>
	<path fill="#FFFFFF" d="M68.455,275.682H33.037c-3.99,0-7.343,3.715-7.343,7.872v62.358c0,4.154,3.353,7.77,7.343,7.77h35.418
		c3.989,0,7.239-3.615,7.239-7.77v-62.358C75.695,279.396,72.445,275.682,68.455,275.682z M50.748,349.062
		c-1.282,0-2.318-1.082-2.318-2.414s1.036-2.414,2.318-2.414c1.276,0,2.312,1.082,2.312,2.414
		C53.061,347.98,52.025,349.062,50.748,349.062z M70.695,336.7c0,2.077-1.453,3.981-3.448,3.981H34.244
		c-1.992,0-4.55-1.904-4.55-3.981v-51.888c0-2.08,2.558-4.13,4.55-4.13h33.002c1.995,0,3.448,2.051,3.448,4.13V336.7z"/>
	<g>
		<path fill="#FFFFFF" d="M61.374,307.619c-0.112-0.29-0.314-0.525-0.553-0.728c-0.385-0.33-0.825-0.573-1.293-0.774
			c-1.216-0.529-2.503-0.824-3.822-0.994c-0.795-0.099-1.599-0.165-2.398-0.214c-1.114-0.064-2.228-0.035-3.337,0.053
			c-0.887,0.071-1.768,0.187-2.639,0.366c-0.998,0.208-1.976,0.477-2.888,0.924c-0.461,0.228-0.891,0.495-1.231,0.869
			c-0.533,0.58-0.545,1.262-0.005,1.834c0.212,0.222,0.46,0.421,0.721,0.589c0.681,0.444,1.451,0.71,2.237,0.934
			c0.819,0.234,1.66,0.393,2.507,0.508c0.324,0.044,0.648,0.077,0.985,0.115c0.536-1.744,1.071-3.475,1.605-5.208
			c0.007,0.003,0.015,0.006,0.021,0.007c0.087,1.763,0.173,3.524,0.263,5.296c0.116,0.006,0.219,0.018,0.319,0.015
			c0.657-0.016,1.314-0.027,1.97-0.058c1.009-0.046,2.01-0.177,2.998-0.373c0.977-0.195,1.932-0.452,2.831-0.868
			c0.532-0.248,1.037-0.537,1.417-0.979C61.422,308.544,61.564,308.11,61.374,307.619z"/>
		<path fill="#FFFFFF" d="M49.305,311.338c-1.162,0.029-2.318,0.134-3.458,0.354c-1.103,0.212-2.175,0.509-3.183,0.994
			c-0.641,0.31-1.234,0.679-1.683,1.22c-0.405,0.496-0.586,1.044-0.385,1.662c0.168,0.514,0.527,0.9,0.961,1.232
			c0.73,0.559,1.572,0.915,2.454,1.202c0.911,0.296,1.851,0.485,2.804,0.624c0.149,0.02,0.3,0.035,0.446,0.049
			c0.757-2.449,1.508-4.889,2.265-7.336C49.442,311.338,49.373,311.336,49.305,311.338z"/>
		<path fill="#FFFFFF" d="M57.72,313.074c-0.825-0.521-1.74-0.851-2.688-1.108c-0.907-0.244-1.833-0.403-2.772-0.507
			c-0.226-0.025-0.451-0.042-0.693-0.062c0.122,2.449,0.242,4.88,0.361,7.319c0.071,0,0.129,0.009,0.184-0.003
			c0.576-0.08,1.154-0.148,1.725-0.25c1.036-0.189,2.044-0.474,2.997-0.904c0.688-0.314,1.328-0.689,1.824-1.254
			c0.604-0.685,0.674-1.479,0.188-2.207C58.56,313.67,58.16,313.35,57.72,313.074z"/>
	</g>
</g>
<g>
	<path fill="#E50029" d="M189.581,398.007v37.879c0,2.185-1.708,3.965-3.806,3.965h-55.163c-2.096,0-3.803-1.78-3.803-3.965v-37.871
		c-0.834-0.762-1.53-1.67-2.073-2.69v40.562c0,3.37,2.646,6.125,5.876,6.125h55.163c3.234,0,5.877-2.755,5.877-6.125v-40.575
		C191.11,396.334,190.418,397.244,189.581,398.007"/>
	<path fill="#E50029" d="M125.968,373.682v16.851c0,1.245,0.321,2.401,0.843,3.436c1.194,2.362,3.552,3.999,6.29,3.999
		c3.937,0,7.135-3.337,7.135-7.435v-16.851H125.968z"/>
	<path fill="#E50029" d="M142.694,373.682v16.851c0,4.097,3.199,7.435,7.133,7.435c3.937,0,7.136-3.337,7.136-7.435v-16.851H142.694
		z"/>
	<path fill="#E50029" d="M159.421,373.682v16.851c0,4.097,3.199,7.435,7.134,7.435c3.936,0,7.134-3.337,7.134-7.435v-16.851H159.421
		z"/>
	<path fill="#E50029" d="M176.146,373.682v16.851c0,4.097,3.2,7.435,7.134,7.435c2.748,0,5.107-1.641,6.302-4.015
		c0.516-1.03,0.834-2.183,0.834-3.419v-16.85h-14.27V373.682z"/>
	<rect x="163.688" y="412.184" fill="#E50029" width="16.727" height="29.827"/>
	<rect x="133.349" y="412.184" fill="#E50029" width="23.598" height="12.42"/>
</g>
<g>
	<path fill="#E50029" d="M192.486,487.068v41.229c0,2.376-1.856,4.315-4.139,4.315h-60.041c-2.281,0-4.141-1.939-4.141-4.315
		v-41.219c-0.908-0.83-1.666-1.817-2.256-2.929v44.147c0,3.667,2.879,6.665,6.396,6.665h60.041c3.518,0,6.396-2.998,6.396-6.665
		v-44.162C194.152,485.246,193.398,486.236,192.486,487.068"/>
	<rect x="164.305" y="502.498" fill="#E50029" width="18.205" height="32.464"/>
	<rect x="131.283" y="502.498" fill="#E50029" width="25.684" height="22.093"/>
	<path fill="#E50029" d="M121.695,461.682v20h73v-20H121.695z M154.744,478.589c-0.144-0.014-0.285-0.029-0.431-0.047
		c-0.916-0.132-1.817-0.313-2.694-0.6c-0.849-0.276-1.658-0.62-2.361-1.156c-0.416-0.319-0.764-0.691-0.924-1.186
		c-0.193-0.596-0.021-1.122,0.371-1.597c0.43-0.521,1-0.878,1.614-1.175c0.972-0.468,2.002-0.752,3.062-0.958
		c1.098-0.208,2.207-0.312,3.326-0.339c0.065-0.002,0.131,0,0.215,0C156.195,473.887,155.473,476.232,154.744,478.589z
		 M165.703,476.31c-0.479,0.542-1.093,0.903-1.754,1.206c-0.918,0.415-1.888,0.689-2.886,0.87c-0.547,0.097-1.104,0.164-1.655,0.241
		c-0.054,0.01-0.107,0.002-0.179,0.002c-0.114-2.345-0.229-4.684-0.346-7.04c0.23,0.021,0.449,0.035,0.666,0.06
		c0.902,0.101,1.793,0.252,2.666,0.488c0.912,0.247,1.791,0.564,2.586,1.066c0.422,0.264,0.807,0.573,1.08,0.984
		C166.35,474.886,166.283,475.651,165.703,476.31z M168.039,469.221c-0.367,0.426-0.854,0.702-1.363,0.942
		c-0.865,0.399-1.785,0.646-2.725,0.834c-0.951,0.188-1.912,0.312-2.884,0.359c-0.629,0.03-1.262,0.04-1.895,0.056
		c-0.098,0.003-0.195-0.008-0.307-0.016c-0.087-1.704-0.171-3.397-0.255-5.093c-0.006-0.003-0.014-0.004-0.02-0.008
		c-0.514,1.666-1.027,3.332-1.547,5.008c-0.32-0.036-0.635-0.065-0.947-0.108c-0.813-0.112-1.621-0.265-2.41-0.49
		c-0.756-0.216-1.496-0.473-2.149-0.899c-0.252-0.161-0.49-0.352-0.693-0.565c-0.52-0.551-0.51-1.208,0.002-1.765
		c0.33-0.358,0.744-0.616,1.188-0.836c0.877-0.431,1.815-0.688,2.774-0.889c0.838-0.172,1.687-0.284,2.539-0.352
		c1.066-0.085,2.139-0.113,3.209-0.052c0.771,0.047,1.541,0.109,2.308,0.206c1.27,0.164,2.508,0.447,3.676,0.954
		c0.449,0.196,0.875,0.432,1.244,0.746c0.229,0.196,0.424,0.422,0.53,0.701C168.5,468.43,168.363,468.845,168.039,469.221z"/>
</g>
<g>
	<path fill="#E50029" d="M190.195,205.708c-3.666-8.898-9.892-15.372-18.517-19.208c-4.312-1.921-8.798-2.895-13.509-2.895
		c-4.719,0-9.19,0.974-13.502,2.895c-8.545,3.821-14.844,10.295-18.511,19.208c-1.849,4.469-2.747,9.158-2.747,14.076
		c0,4.9,0.898,9.629,2.747,14.095c3.667,8.924,9.966,15.437,18.511,19.252c4.312,1.934,8.783,2.896,13.502,2.896
		c4.711,0,9.197-0.974,13.509-2.896c8.625-3.823,14.851-10.343,18.517-19.252c1.856-4.479,2.784-9.195,2.784-14.095
		C192.979,214.866,192.052,210.199,190.195,205.708L190.195,205.708z M146.609,190.339c-3.007,3.964-5.203,8.999-6.615,15.097
		h-9.097C134.253,198.656,139.884,193.234,146.609,190.339L146.609,190.339z M127.636,219.784c0-3.457,0.536-6.78,1.565-9.985h9.966
		c-0.501,3.363-0.731,6.689-0.731,9.985c0,3.242,0.23,6.534,0.731,9.897h-10.053C128.137,226.474,127.636,223.143,127.636,219.784
		L127.636,219.784z M130.897,234.045h9.097c1.412,6.218,3.608,11.33,6.615,15.251C139.768,246.326,134.137,240.897,130.897,234.045
		L130.897,234.045z M156.054,251.272c-2.485-0.748-4.798-2.65-6.893-5.739c-2.096-3.096-3.688-6.935-4.784-11.488h11.677V251.272z
		 M156.054,229.682h-12.633c-0.5-3.524-0.761-6.816-0.761-9.897c0-3.336,0.261-6.663,0.833-9.985h12.561V229.682z M156.054,205.436
		h-11.677c1.168-4.516,2.791-8.316,4.863-11.374c2.096-3.078,4.327-4.987,6.812-5.708L156.054,205.436L156.054,205.436z
		 M185.493,205.436h-9.104c-1.398-6.098-3.608-11.133-6.611-15.097C176.514,193.234,182.145,198.656,185.493,205.436
		L185.493,205.436z M160.344,188.354c2.465,0.721,4.711,2.63,6.812,5.708c2.089,3.058,3.689,6.858,4.856,11.374h-11.669
		L160.344,188.354L160.344,188.354z M160.344,209.799h12.553c0.572,3.322,0.84,6.648,0.84,9.985c0,3.081-0.268,6.373-0.76,9.897
		h-12.633V209.799z M160.344,251.272v-17.227h11.669c-1.131,4.553-2.755,8.376-4.827,11.488
		C165.113,248.64,162.852,250.562,160.344,251.272L160.344,251.272z M169.779,249.296c3.003-3.921,5.213-9.033,6.611-15.251h9.104
		C182.254,240.897,176.622,246.326,169.779,249.296L169.779,249.296z M187.275,229.682h-10.052c0.515-3.363,0.731-6.655,0.731-9.897
		c0-3.295-0.218-6.622-0.731-9.985h9.972c1.022,3.205,1.56,6.528,1.56,9.985C188.754,223.143,188.254,226.474,187.275,229.682
		L187.275,229.682z"/>
</g>
<g>
	<g>
		<path fill="#E50029" d="M162.383,554.438c-11.594,0-21.855,6.029-28.064,15.229c1.285,0.874,2.539,2.072,3.75,3.612
			c4.634-7.217,12.125-12.281,20.793-13.369l3.521,6.208l3.52-6.208c13.324,1.671,23.916,12.706,25.523,26.586l-5.961,3.667
			l5.961,3.668c-1.074,9.28-6.176,17.27-13.414,22.059c0.461,1.096,0.721,2.214,0.768,3.368c0.033,0.845-0.051,1.642-0.219,2.398
			c10.773-6.031,18.117-17.884,18.117-31.491C196.678,570.464,181.293,554.438,162.383,554.438L162.383,554.438z"/>
		<path fill="#E50029" d="M171.135,613.274c-7.906-6.619-10.117-3.365-13.703,0.372c-2.506,2.609-8.844-2.841-14.313-8.543
			c-5.474-5.7-10.703-12.301-8.199-14.91c3.588-3.736,6.709-6.04,0.354-14.272c-6.354-8.236-10.588-1.914-14.062,1.706
			c-4.012,4.178-0.213,19.746,14.559,35.135s29.717,19.344,33.728,15.167C172.969,624.309,179.041,619.896,171.135,613.274
			L171.135,613.274z"/>
		<path fill="#E50029" d="M170.834,589.071"/>
	</g>
	<g>
		<path fill="#E50029" d="M174.104,584.18c-0.131-0.338-0.367-0.613-0.646-0.852c-0.451-0.385-0.969-0.669-1.515-0.908
			c-1.424-0.618-2.932-0.963-4.479-1.161c-0.93-0.119-1.869-0.193-2.807-0.252c-1.306-0.076-2.609-0.042-3.908,0.062
			c-1.037,0.084-2.07,0.22-3.09,0.429c-1.168,0.243-2.312,0.557-3.38,1.083c-0.54,0.266-1.045,0.581-1.444,1.018
			c-0.623,0.678-0.637,1.479-0.004,2.146c0.246,0.262,0.539,0.495,0.844,0.689c0.797,0.521,1.699,0.833,2.619,1.095
			c0.961,0.274,1.942,0.46,2.936,0.597c0.379,0.051,0.763,0.088,1.152,0.133c0.631-2.042,1.256-4.069,1.883-6.098
			c0.008,0.004,0.017,0.006,0.025,0.008c0.102,2.065,0.203,4.127,0.307,6.203c0.137,0.006,0.256,0.02,0.375,0.018
			c0.771-0.02,1.539-0.031,2.307-0.067c1.183-0.057,2.353-0.208,3.511-0.438c1.145-0.228,2.262-0.53,3.313-1.016
			c0.623-0.291,1.215-0.628,1.66-1.146C174.16,585.264,174.326,584.756,174.104,584.18z"/>
		<path fill="#E50029" d="M159.971,588.535c-1.361,0.034-2.713,0.157-4.049,0.414c-1.291,0.249-2.547,0.596-3.728,1.165
			c-0.75,0.361-1.444,0.794-1.971,1.429c-0.475,0.579-0.686,1.221-0.449,1.945c0.195,0.603,0.617,1.055,1.125,1.442
			c0.854,0.653,1.843,1.072,2.873,1.407c1.066,0.347,2.168,0.569,3.283,0.73c0.176,0.021,0.351,0.041,0.523,0.058
			c0.885-2.87,1.766-5.724,2.651-8.591C160.131,588.535,160.051,588.533,159.971,588.535z"/>
		<path fill="#E50029" d="M169.824,590.568c-0.968-0.611-2.037-0.997-3.146-1.301c-1.062-0.286-2.148-0.472-3.246-0.593
			c-0.266-0.031-0.529-0.048-0.812-0.073c0.143,2.869,0.282,5.716,0.422,8.572c0.084,0,0.151,0.009,0.217-0.004
			c0.674-0.094,1.35-0.175,2.018-0.294c1.214-0.22,2.394-0.553,3.511-1.058c0.805-0.369,1.555-0.809,2.135-1.469
			c0.707-0.802,0.789-1.732,0.221-2.583C170.807,591.266,170.34,590.892,169.824,590.568z"/>
	</g>
</g>
<g>
	<rect x="143.695" y="132.682" fill="#E50029" width="28" height="3"/>
	<path fill="#E50029" d="M184.695,125.493v-33.05c0-2.634-1.842-4.761-4.37-4.761h-2.839h-39.394h-2.839
		c-2.529,0-4.56,2.127-4.56,4.761v33.05l-0.089,38.189h54.264L184.695,125.493z M169.695,160.682h-24v-14h24V160.682z
		 M174.695,139.682h-33v-11h33V139.682z M179.695,119.596c0,1.373-1.334,2.086-2.651,2.086h-38.579c-1.319,0-2.77-0.713-2.77-2.086
		V95.964c0-1.367,1.449-2.283,2.77-2.283h38.579c1.317,0,2.651,0.916,2.651,2.283V119.596z"/>
</g>
<g>
	<path fill="#E50029" d="M208.973,13.419c-0.547-1.413-1.535-2.566-2.7-3.556c-1.878-1.608-4.036-2.798-6.319-3.793
		c-5.942-2.578-12.235-4.019-18.688-4.85c-3.887-0.489-7.811-0.805-11.727-1.045c-5.441-0.32-10.884-0.177-16.309,0.256
		c-4.334,0.352-8.646,0.92-12.902,1.792c-4.876,1.015-9.65,2.327-14.105,4.518c-2.258,1.112-4.361,2.422-6.033,4.25
		c-2.6,2.829-2.662,6.164-0.021,8.964c1.036,1.087,2.248,2.062,3.522,2.88c3.332,2.169,7.095,3.474,10.939,4.568
		c4.008,1.147,8.108,1.919,12.252,2.491c1.586,0.211,3.18,0.373,4.813,0.558c2.636-8.527,5.244-16.992,7.857-25.458
		c0.031,0.018,0.067,0.025,0.104,0.035c0.428,8.618,0.848,17.226,1.283,25.889c0.567,0.032,1.066,0.089,1.562,0.074
		c3.217-0.079,6.429-0.129,9.631-0.284c4.932-0.23,9.823-0.868,14.656-1.825c4.772-0.951,9.44-2.209,13.838-4.245
		c2.6-1.211,5.067-2.62,6.93-4.784C209.209,17.945,209.906,15.828,208.973,13.419z"/>
	<path fill="#E50029" d="M149.969,31.6c-5.682,0.143-11.324,0.659-16.9,1.727c-5.39,1.041-10.633,2.49-15.561,4.866
		c-3.128,1.51-6.033,3.316-8.223,5.969c-1.985,2.416-2.863,5.096-1.882,8.118c0.82,2.513,2.582,4.402,4.697,6.025
		c3.568,2.729,7.689,4.474,11.997,5.874c4.458,1.45,9.051,2.376,13.708,3.044c0.732,0.097,1.456,0.177,2.182,0.246
		c3.697-11.98,7.371-23.899,11.071-35.87C150.643,31.6,150.306,31.593,149.969,31.6z"/>
	<path fill="#E50029" d="M191.108,40.087c-4.038-2.546-8.509-4.158-13.138-5.418c-4.438-1.201-8.964-1.973-13.552-2.481
		c-1.106-0.125-2.212-0.203-3.391-0.301c0.595,11.972,1.179,23.855,1.763,35.784c0.35,0,0.631,0.033,0.901-0.016
		c2.812-0.395,5.638-0.729,8.422-1.228c5.068-0.919,9.994-2.308,14.654-4.423c3.365-1.535,6.49-3.369,8.918-6.124
		c2.949-3.348,3.293-7.235,0.914-10.786C195.214,43.004,193.26,41.435,191.108,40.087z"/>
</g>
<g>
	<path fill="#E50029" d="M175.455,275.682h-35.418c-3.99,0-7.343,3.715-7.343,7.872v62.358c0,4.154,3.353,7.77,7.343,7.77h35.418
		c3.989,0,7.239-3.615,7.239-7.77v-62.358C182.695,279.396,179.445,275.682,175.455,275.682z M157.748,349.062
		c-1.282,0-2.318-1.082-2.318-2.414s1.036-2.414,2.318-2.414c1.276,0,2.312,1.082,2.312,2.414
		C160.061,347.98,159.025,349.062,157.748,349.062z M177.695,336.7c0,2.077-1.453,3.981-3.448,3.981h-33.002
		c-1.992,0-4.55-1.904-4.55-3.981v-51.888c0-2.08,2.558-4.13,4.55-4.13h33.002c1.995,0,3.448,2.051,3.448,4.13V336.7z"/>
	<g>
		<path fill="#E50029" d="M168.374,307.619c-0.112-0.29-0.314-0.525-0.553-0.728c-0.385-0.33-0.825-0.573-1.293-0.774
			c-1.216-0.529-2.503-0.824-3.822-0.994c-0.795-0.099-1.599-0.165-2.398-0.214c-1.114-0.064-2.228-0.035-3.337,0.053
			c-0.887,0.071-1.768,0.187-2.639,0.366c-0.998,0.208-1.976,0.477-2.888,0.924c-0.461,0.228-0.891,0.495-1.231,0.869
			c-0.533,0.58-0.545,1.262-0.005,1.834c0.212,0.222,0.46,0.421,0.721,0.589c0.681,0.444,1.451,0.71,2.237,0.934
			c0.819,0.234,1.66,0.393,2.507,0.508c0.324,0.044,0.648,0.077,0.985,0.115c0.536-1.744,1.071-3.475,1.605-5.208
			c0.007,0.003,0.015,0.006,0.021,0.007c0.087,1.763,0.173,3.524,0.263,5.296c0.116,0.006,0.219,0.018,0.319,0.015
			c0.657-0.016,1.314-0.027,1.97-0.058c1.009-0.046,2.01-0.177,2.998-0.373c0.977-0.195,1.932-0.452,2.831-0.868
			c0.532-0.248,1.037-0.537,1.417-0.979C168.422,308.544,168.564,308.11,168.374,307.619z"/>
		<path fill="#E50029" d="M156.305,311.338c-1.162,0.029-2.318,0.134-3.458,0.354c-1.103,0.212-2.175,0.509-3.183,0.994
			c-0.641,0.31-1.234,0.679-1.683,1.22c-0.405,0.496-0.586,1.044-0.385,1.662c0.168,0.514,0.527,0.9,0.961,1.232
			c0.73,0.559,1.572,0.915,2.454,1.202c0.911,0.296,1.851,0.485,2.804,0.624c0.149,0.02,0.3,0.035,0.446,0.049
			c0.757-2.449,1.508-4.889,2.265-7.336C156.442,311.338,156.373,311.336,156.305,311.338z"/>
		<path fill="#E50029" d="M164.72,313.074c-0.825-0.521-1.74-0.851-2.688-1.108c-0.907-0.244-1.833-0.403-2.772-0.507
			c-0.226-0.025-0.451-0.042-0.693-0.062c0.122,2.449,0.242,4.88,0.361,7.319c0.071,0,0.129,0.009,0.184-0.003
			c0.576-0.08,1.154-0.148,1.725-0.25c1.036-0.189,2.044-0.474,2.997-0.904c0.688-0.314,1.328-0.689,1.824-1.254
			c0.604-0.685,0.674-1.479,0.188-2.207C165.56,313.67,165.16,313.35,164.72,313.074z"/>
	</g>
</g>
<path fill="#E50029" d="M194.196,654.242c0-2.762-2.238-5-5-5h-63c-2.762,0-5,2.238-5,5v55c0,2.762,2.238,5,5,5h63
	c2.762,0,5-2.238,5-5V654.242z M168.196,668.242v13h-21v-13H168.196z M147.196,696.242v-12h21v12H147.196z M168.196,699.242v13h-21
	v-13H168.196z M123.196,668.242h21v13h-21V668.242z M123.196,684.242h21v12h-21V684.242z M123.196,708.914v-9.672h21v13h-17.56
	C124.982,712.242,123.196,710.568,123.196,708.914z M192.196,708.914c0,1.654-0.905,3.328-2.56,3.328h-18.44v-13h21V708.914z
	 M192.196,696.242h-21v-12h21V696.242z M192.196,681.242h-21v-13h21V681.242z"/>
<path fill="#FFFFFF" d="M87.196,654.242c0-2.762-2.239-5-5-5h-63c-2.761,0-5,2.238-5,5v55c0,2.762,2.239,5,5,5h63
	c2.761,0,5-2.238,5-5V654.242z M61.196,668.242v13h-21v-13H61.196z M40.196,696.242v-12h21v12H40.196z M61.196,699.242v13h-21v-13
	H61.196z M16.196,668.242h21v13h-21V668.242z M16.196,684.242h21v12h-21V684.242z M16.196,708.914v-9.672h21v13h-17.34
	C18.201,712.242,16.196,710.568,16.196,708.914z M85.196,708.914c0,1.654-0.686,3.328-2.34,3.328h-18.66v-13h21V708.914z
	 M85.196,696.242h-21v-12h21V696.242z M85.196,681.242h-21v-13h21V681.242z"/>
</svg>
