<?xml version="1.0" encoding="utf-8"?>
<!-- Generator: Adobe Illustrator 16.0.0, SVG Export Plug-In . SVG Version: 6.00 Build 0)  -->
<!DOCTYPE svg PUBLIC "-//W3C//DTD SVG 1.1//EN" "http://www.w3.org/Graphics/SVG/1.1/DTD/svg11.dtd">
<svg version="1.1" id="Capa_1" xmlns="http://www.w3.org/2000/svg" xmlns:xlink="http://www.w3.org/1999/xlink" x="0px" y="0px"
	 width="122.556px" height="211.318px" viewBox="0 0 122.556 211.318" enable-background="new 0 0 122.556 211.318"
	 xml:space="preserve">
<g>
	<path fill="#4E4044" d="M122.42,202.233c-0.005,5.021-4.076,9.088-9.098,9.085L9.083,211.245c-5.022-0.005-9.088-4.077-9.083-9.098
		L0.135,9.085C0.14,4.065,4.211-0.002,9.232,0l104.238,0.074c5.022,0.003,9.088,4.076,9.085,9.096L122.42,202.233z"/>
	<path fill="#E6E6E6" d="M78.139,11.722c0,1.1-0.892,1.991-1.992,1.991l-29.609-0.021c-1.1,0-1.992-0.894-1.99-1.994l0,0
		c0-1.1,0.893-1.991,1.992-1.992l29.609,0.021C77.252,9.728,78.142,10.62,78.139,11.722L78.139,11.722z"/>
	<circle fill="#E6E6E6" cx="61.215" cy="194.77" r="9.68"/>
	<rect x="10.457" y="27.9" fill="#E6E6E6" width="101.901" height="144.216"/>
</g>
</svg>
