<?xml version="1.0" encoding="utf-8"?>
<!-- Generator: Adobe Illustrator 16.0.0, SVG Export Plug-In . SVG Version: 6.00 Build 0)  -->
<!DOCTYPE svg PUBLIC "-//W3C//DTD SVG 1.1//EN" "http://www.w3.org/Graphics/SVG/1.1/DTD/svg11.dtd">
<svg version="1.1" id="Capa_1" xmlns="http://www.w3.org/2000/svg" xmlns:xlink="http://www.w3.org/1999/xlink" x="0px" y="0px"
	 width="139.844px" height="241.123px" viewBox="0 0 139.844 241.123" enable-background="new 0 0 139.844 241.123"
	 xml:space="preserve">
<g>
	<g>
		<path fill="#222122" d="M139.686,230.756c-0.002,5.728-4.651,10.369-10.378,10.367l-118.942-0.084
			C4.636,241.035-0.005,236.387,0,230.658L0.154,10.366C0.159,4.638,4.805-0.003,10.536,0l118.939,0.084
			c5.731,0.003,10.372,4.651,10.369,10.378L139.686,230.756z"/>
		<path fill="#5C5B5F" d="M89.162,13.374c-0.003,1.255-1.02,2.272-2.274,2.272l-33.785-0.025c-1.256,0.001-2.272-1.019-2.271-2.273
			l0,0c0-1.254,1.019-2.272,2.275-2.273l33.781,0.024C88.147,11.1,89.162,12.118,89.162,13.374L89.162,13.374z"/>
		<rect x="11.777" y="31.539" fill="#C52213" width="116.298" height="165.023"/>
		<circle fill="#5C5B5F" cx="69.85" cy="222.24" r="11.046"/>
	</g>
	<g>
		<path fill="#FFFFFF" d="M62.373,119.615l9.509-26.05l0.003,26.042c1.383,0.046,2.804,0.089,4.223,0.089
			c26.071,0.018,47.213-6.933,47.218-16.335c0.007-9.381-21.126-17.022-47.195-17.04c-26.076-0.02-47.231,7.595-47.236,16.974
			C28.889,110.979,43.03,117.467,62.373,119.615L62.373,119.615z"/>
		<path fill="#FFFFFF" d="M61.674,121.555c-25.098,0.38-45.153,7.842-45.157,16.983c-0.007,7.597,13.893,14.058,33.016,16.255
			L61.674,121.555L61.674,121.555z"/>
		<path fill="#FFFFFF" d="M71.903,121.541l-0.02,33.269c22.181-1.396,39.056-7.824,39.06-16.205
			C110.947,130.209,94.088,122.946,71.903,121.541L71.903,121.541z"/>
	</g>
</g>
</svg>
