<?xml version="1.0" encoding="utf-8"?>
<!-- Generator: Adobe Illustrator 16.0.0, SVG Export Plug-In . SVG Version: 6.00 Build 0)  -->
<!DOCTYPE svg PUBLIC "-//W3C//DTD SVG 1.1//EN" "http://www.w3.org/Graphics/SVG/1.1/DTD/svg11.dtd">
<svg version="1.1" id="Capa_1" xmlns="http://www.w3.org/2000/svg" xmlns:xlink="http://www.w3.org/1999/xlink" x="0px" y="0px"
	 width="31.975px" height="31.975px" viewBox="0 0 31.975 31.975" enable-background="new 0 0 31.975 31.975" xml:space="preserve">
<circle fill="#6CC04A" cx="15.987" cy="15.987" r="15.987"/>
<g>
	<path fill="#FFFFFF" d="M23.766,17.005c-0.513,0-0.902-0.334-1.045-0.477l-6.735-6.725c-1.643,1.645-6.65,6.641-6.733,6.728
		c-0.142,0.14-0.531,0.474-1.043,0.474c-0.301,0-0.58-0.111-0.81-0.325c-0.346-0.316-0.426-0.661-0.43-0.894
		c-0.012-0.377,0.152-0.731,0.494-1.086c0.117-0.12,2.853-2.855,7.701-7.7l0.827-0.805l0.85,0.802
		c4.825,4.821,7.519,7.529,7.666,7.682c0.343,0.35,0.511,0.72,0.497,1.099c-0.009,0.332-0.16,0.651-0.427,0.898
		C24.342,16.893,24.06,17.005,23.766,17.005z"/>
	<path fill="#FFFFFF" d="M15.985,9.018c0.718,0,1.294,0.534,1.294,1.192v14.374c0,0.659-0.576,1.194-1.294,1.194l0,0
		c-0.714,0-1.29-0.535-1.29-1.194V10.21C14.695,9.552,15.271,9.018,15.985,9.018L15.985,9.018z"/>
</g>
</svg>
