<?xml version="1.0" encoding="utf-8"?>
<!-- Generator: Adobe Illustrator 16.0.0, SVG Export Plug-In . SVG Version: 6.00 Build 0)  -->
<!DOCTYPE svg PUBLIC "-//W3C//DTD SVG 1.1//EN" "http://www.w3.org/Graphics/SVG/1.1/DTD/svg11.dtd">
<svg version="1.1" id="Capa_1" xmlns="http://www.w3.org/2000/svg" xmlns:xlink="http://www.w3.org/1999/xlink" x="0px" y="0px"
	 width="406.678px" height="220.652px" viewBox="0 0 406.678 220.652" enable-background="new 0 0 406.678 220.652"
	 xml:space="preserve">
<g>
	<g id="tzXGnG.tif">
		<g>
			<path fill-rule="evenodd" clip-rule="evenodd" fill="#4E4044" d="M346.059,0c7.49,3.128,10.135,8.532,10.088,16.798
				c-0.309,54.981-0.147,109.965-0.17,164.947c-0.006,12.633-2.721,15.34-15.357,15.342c-90.932,0.016-181.865,0.014-272.799,0.001
				c-12.965-0.003-15.662-2.745-15.666-15.94c-0.019-54.453,0.125-108.908-0.149-163.361C51.964,9.487,54.037,3.394,61.91,0
				C156.625,0,251.343,0,346.059,0z"/>
			<path fill-rule="evenodd" clip-rule="evenodd" fill="#4E4044" d="M0,203.19c55.779,0.078,111.562,0.143,167.344,0.26
				c3.943,0.01,8.377-1.431,10.561,4.173c0.482,1.239,4.175,1.687,6.396,1.712c13.219,0.154,26.444,0.277,39.652-0.098
				c2.596-0.073,5.126-2.373,7.69-3.638c1.478-0.729,2.964-2.073,4.448-2.074c56.047-0.05,112.094,0.024,168.141,0.114
				c0.465,0,0.93,0.424,1.304,0.605c3.616,8.966-1.923,13.013-8.681,16.407c-132.287,0-264.568,0-396.855,0
				C0,214.81,0,208.999,0,203.19z"/>
		</g>
	</g>
	<path fill-rule="evenodd" clip-rule="evenodd" fill="#E6E6E6" d="M335.74,18.386c-88.232,0-175.633,0-263.143,0
		c0,54.334,0,107.994,0,161.936c87.894,0,175.328,0,263.143,0C335.74,126.128,335.74,72.479,335.74,18.386z"/>
</g>
</svg>
